{"title":"Shades of Darkness 2000 DVDrip English Klam","uid":5797060,"size":1473062580,"categoryP":"video","categoryS":"movies","magnet":"?xt=urn:btih:4555d31639b2ba2c28e6ed097305d3fa46d66ad0&amp;dn=Shades+of+Darkness+2000+DVDrip+English+Klam&amp;tr=udp%3A%2F%2Ftracker.openbittorrent.com%3A80&amp;tr=udp%3A%2F%2Fopen.demonii.com%3A1337&amp;tr=udp%3A%2F%2Ftracker.coppersurfer.tk%3A6969&amp;tr=udp%3A%2F%2Fexodus.desync.com%3A6969","seeders":0,"leechers":0,"uploader":"Klambake","files":-1,"time":1283098572,"description":"With: Anne C. Trebilcock, John Maczko en Mick Dwyer\n\nShades of Darkness is the story of a young woman named Bridget Avers, Anne C. Trebilcock, who returns to her home town of Autumn Hills to discover a threatening Entity, John Maczko attempting to wipe out the entire population. Aware that she has a tie to the town through a past life, Bridget begins to put together the pieces of a much larger puzzle revealing a horrific course through history that only she has the knowledge to stop. As Bridget confronts the Entity, its massing strength threatens to overtake her and infect the townspeople with its hateful plague. Her two worlds collide blurring the lines between the past and present. She soon realizes that the powerful force the Entity embodies will destroy her and the people of Autumn Hills if she cannot stop it's destructive reign.\n\nGeneral:\n\nComplete name                    : Shades Of Darkness\\Shades Of Darkness.avi\nFormat                           : AVI\nFormat/Info                      : Audio Video Interleave\nFile size                        : 1.37 GiB\nDuration                         : 1h 21mn\nOverall bit rate                 : 2 397 Kbps\n\nVideo:\n\nFormat                           : MPEG-4 Visual\nFormat profile                   : Simple@L3\nFormat settings, BVOP            : No\nFormat settings, QPel            : No\nFormat settings, GMC             : No warppoints\nFormat settings, Matrix          : Default (H.263)\nCodec ID                         : XVID\nCodec ID/Hint                    : XviD\nDuration                         : 1h 21mn\nBit rate                         : 2 162 Kbps\nWidth                            : 720 pixels\nHeight                           : 400 pixels\nDisplay aspect ratio             : 16:9\nFrame rate                       : 25.000 fps\nColor space                      : YUV\nChroma subsampling               : 4:2:0\nBit depth                        : 8 bits\nScan type                        : Progressive\nBits/(Pixel*Frame)               : 0.300\nStream size                      : 1.24 GiB (90%)\nWriting library                  : XviD 1.1.2 (UTC 2006-11-01)\n\nAudio:\n\nFormat                           : AC-3\nFormat/Info                      : Audio Coding 3\nFormat profile                   : Dolby Digital\nMode extension                   : CM (complete main)\nCodec ID                         : 2000\nDuration                         : 1h 21mn\nBit rate mode                    : Constant\nBit rate                         : 224 Kbps\nChannel(s)                       : 2 channels\nChannel positions                : Front: L R\nSampling rate                    : 48.0 KHz\nStream size                      : 131 MiB (9%)\nAlignment                        : Aligned on interleaves\nInterleave, duration             : 32 ms (0.80 video frame)\nInterleave, preload duration     : 96 ms\n","torrent":{"xt":"urn:btih:4555d31639b2ba2c28e6ed097305d3fa46d66ad0","amp;dn":"Shades+of+Darkness+2000+DVDrip+English+Klam","amp;tr":["udp%3A%2F%2Ftracker.openbittorrent.com%3A80","udp%3A%2F%2Fopen.demonii.com%3A1337","udp%3A%2F%2Ftracker.coppersurfer.tk%3A6969","udp%3A%2F%2Fexodus.desync.com%3A6969"],"infoHash":"4555d31639b2ba2c28e6ed097305d3fa46d66ad0","infoHashBuffer":{"type":"Buffer","data":[69,85,211,22,57,178,186,44,40,230,237,9,115,5,211,250,70,214,106,208]},"announce":[],"urlList":[]}}